# xmcd CD database file
#
# Track frame offsets:
#	150
#	10450
#	25200
#	42650
#	58162
#	73887
#	89512
#	100257
#	115232
#	132955
#	147675
#	161480
#
# Disc length: 2437 seconds
#
# Revision: 4
# Processed by: cddbd v1.5.2PL0 Copyright (c) Steve Scherf et al.
# Submitted via: CDex 1.51
#
DISCID=b609830c
DTITLE=J.B. Hutto and His Hawks with Sunnyland Slim - Hawk Squat
DYEAR=1994
DGENRE=Blues
TTITLE0=Speak My Mind
TTITLE1=If You Change Your Mind
TTITLE2=Too Much Pride
TTITLE3=What Can You Get Outside That You Can't Get At Home
TTITLE4=The Same Mistake Twice
TTITLE5=20% Alcohol
TTITLE6=Hip-Shakin'
TTITLE7=The Feeling Is Gone
TTITLE8=Notoriety Woman
TTITLE9=Too Late
TTITLE10=Send Her Home To Me
TTITLE11=Hawk Squat
EXTD=YEAR: 1994
EXTT0=
EXTT1=
EXTT2=
EXTT3=
EXTT4=
EXTT5=
EXTT6=
EXTT7=
EXTT8=
EXTT9=
EXTT10=
EXTT11=
PLAYORDER=
